<svg height="512.001pt" viewBox="0 0 512.001 512.001" width="512.001pt" xmlns="http://www.w3.org/2000/svg"><path d="m221.335938 330.46875c18.726562 19.898438 49.367187 19.898438 68.089843 0l7.300781-7.753906-10.011718-3.878906c-2.449219-.945313-4.0625-3.300782-4.0625-5.929688v-20.175781c-7.5625 5.214843-16.714844 8.28125-26.574219 8.28125-10.320313 0-19.386719-2.832031-26.804687-7.574219v19.242188c0 2.761718-1.699219 5.242187-4.273438 6.242187l-10.648438 4.128906zm0 0" fill="#eebda4"/><path d="m251.699219 330.46875c-3.339844-3.542969-2.023438-9.34375 2.515625-11.101562l1.148437-.445313c2.574219-1 4.273438-3.480469 4.273438-6.242187v-11.804688c-1.175781.089844-2.363281.136719-3.558594.136719-10.320313 0-19.386719-2.832031-26.804687-7.574219v19.242188c0 2.761718-1.699219 5.242187-4.273438 6.242187l-10.648438 4.128906 6.984376 7.417969c13.257812 14.085938 32.480468 18.1875 49.226562 12.328125-6.90625-2.414063-13.398438-6.515625-18.863281-12.328125zm0 0" fill="#e6b49e"/><path d="m255.398438 139.117188c-35.277344 0-63.871094 28.597656-63.871094 63.871093v25.726563c4.269531-3.957032 11.769531-6.105469 17.699218-5.316406v-3.179688c0-2.53125 2.160157-4.53125 4.664063-4.339844 24.695313 1.773438 48.394531-6.074218 67.398437-18.488281 1.773438-1.15625 4.121094-.871094 5.566407.679687 16.242187 17.460938 14.71875 16.785157 14.71875 19.066407v6.25c6.496093-.976563 13.6875 1.035156 17.695312 4.757812v-25.15625c0-35.273437-28.597656-63.871093-63.871093-63.871093zm0 0" fill="#5e6377"/><path d="m222.433594 202.988281c0-29.941406 20.609375-55.0625 48.417968-61.976562-4.949218-1.230469-10.125-1.890625-15.453124-1.890625-35.277344 0-63.871094 28.59375-63.871094 63.871094v25.726562c4.269531-3.957031 11.769531-6.109375 17.699218-5.316406v-3.183594c0-2.53125 2.160157-4.53125 4.664063-4.339844 2.863281.207032 5.710937.269532 8.542969.222656zm0 0" fill="#52586d"/><path d="m302.285156 221.242188v34.988281c0 .378906-.019531.753906-.027344 1.132812 12.382813 1.875 22.078126-7.070312 22.078126-18.058593 0-11.007813-9.703126-19.910157-22.050782-18.0625zm0 0" fill="#eebda4"/><path d="m208.511719 256.230469v-34.972657c-10.78125-1.441406-22.050781 6.832032-22.050781 18.046876 0 10.972656 9.675781 19.933593 22.078124 18.058593-.007812-.378906-.027343-.753906-.027343-1.132812zm0 0" fill="#eebda4"/><path d="m319.285156 226.71875c-4.015625-4.179688-10.09375-6.507812-17-5.476562v34.988281c0 .378906-.019531.753906-.027344 1.132812 6.925782 1.050781 13.007813-1.289062 17.027344-5.476562zm0 0" fill="#e6b49e"/><path d="m208.511719 251.890625c-3.167969-3.300781-5.050781-7.746094-5.050781-12.585937 0-4.6875 1.972656-8.855469 5.050781-12.019532v-6.027344c-10.78125-1.441406-22.050781 6.832032-22.050781 18.046876 0 10.972656 9.675781 19.933593 22.078124 18.058593-.007812-.378906-.027343-.753906-.027343-1.132812zm0 0" fill="#e6b49e"/><path d="m286.855469 195.929688c-1.445313-1.550782-3.792969-1.839844-5.566407-.679688-19.003906 12.414062-44.132812 20.261719-68.828124 18.484375-2.503907-.1875-4.664063 1.8125-4.664063 4.339844v38.15625c0 24.527343 19.214844 46.921875 48.28125 46.921875 25.875 0 46.921875-21.046875 46.921875-46.921875v-41.234375c0-2.28125.097656-1.605469-16.144531-19.066406zm0 0" fill="#f5c5a9"/><path d="m238.703125 256.230469v-44.050781c-8.605469 1.582031-17.449219 2.1875-26.242187 1.554687-2.503907-.1875-4.664063 1.808594-4.664063 4.339844v38.15625c0 24.523437 19.214844 46.921875 48.28125 46.921875 5.230469 0 10.261719-.875 14.964844-2.460938-19.9375-6.449218-32.339844-24.765625-32.339844-44.460937zm0 0" fill="#eebda4"/><path d="m295.941406 322.410156-7.386718 7.847656c-18.238282 19.378907-48.078126 19.378907-66.316407.003907l-7.082031-7.527344-56.414062 21.871094s-5.730469 2.359375-11.824219 7.925781c26.457031 30.523438 65.515625 49.832031 109.082031 49.832031s82.621094-19.308593 109.082031-49.832031c-6.09375-5.566406-11.828125-7.925781-11.828125-7.925781zm0 0" fill="#00c3ff"/><path d="m176.65625 352.96875 18.308594-22.402344-36.222656 14.042969s-5.730469 2.355469-11.824219 7.921875c6.101562 7.039062 12.878906 13.46875 20.21875 19.214844 5.160156-13.113282 9.519531-18.777344 9.519531-18.777344zm0 0" fill="#00aaf0"/><path d="m495.714844 203.238281h-34.113282c-3.472656 0-6.523437-2.289062-7.503906-5.621093-4.167968-14.148438-9.824218-27.660157-16.765625-40.371094-1.667969-3.050782-1.128906-6.832032 1.328125-9.289063l24.152344-24.152343c6.363281-6.359376 6.363281-16.667969 0-23.03125l-51.585938-51.585938c-6.363281-6.359375-16.671874-6.359375-23.03125 0l-24.15625 24.152344c-2.457031 2.457031-6.238281 2.996094-9.289062 1.328125-12.710938-6.941407-26.21875-12.597657-40.367188-16.765625-3.332031-.980469-5.621093-4.03125-5.621093-7.503906v-34.113282c0-8.996094-7.289063-16.285156-16.285157-16.285156h-72.957031c-8.992187 0-16.285156 7.289062-16.285156 16.285156v34.113282c0 3.472656-2.285156 6.523437-5.617187 7.503906-14.152344 4.171875-27.660157 9.824218-40.371094 16.769531-3.050782 1.664063-6.832032 1.128906-9.289063-1.332031l-24.152343-24.152344c-6.359376-6.359375-16.667969-6.359375-23.03125 0l-51.585938 51.585938c-6.363281 6.363281-6.363281 16.671874 0 23.03125l24.152344 24.15625c2.457031 2.457031 2.996094 6.234374 1.328125 9.289062-6.941407 12.707031-12.597657 26.21875-16.765625 40.367188-.980469 3.332031-4.03125 5.621093-7.503906 5.621093h-34.113282c-8.996094 0-16.285156 7.289063-16.285156 16.28125v72.960938c0 8.992187 7.289062 16.28125 16.285156 16.28125h34.113282c3.46875 0 6.523437 2.289062 7.503906 5.621093 4.167968 14.148438 9.824218 27.660157 16.765625 40.367188 1.667969 3.050781 1.128906 6.832031-1.328125 9.289062l-24.152344 24.15625c-6.363281 6.359376-6.363281 16.667969 0 23.03125l51.585938 51.585938c6.363281 6.359375 16.671874 6.359375 23.03125 0l24.152343-24.152344c2.457031-2.460937 6.238281-2.996094 9.289063-1.332031 12.710937 6.945313 26.21875 12.597656 40.371094 16.769531 3.332031.980469 5.617187 4.03125 5.617187 7.503906v34.113282c0 8.996094 7.292969 16.285156 16.289063 16.285156h72.953124c8.996094 0 16.285157-7.289062 16.285157-16.285156v-34.113282c0-3.472656 2.289062-6.523437 5.621093-7.503906 14.148438-4.167968 27.65625-9.824218 40.367188-16.765625 3.050781-1.667969 6.832031-1.128906 9.289062 1.328125l24.15625 24.152344c6.359376 6.359375 16.667969 6.363281 23.027344 0l51.589844-51.585938c6.363281-6.363281 6.363281-16.671874 0-23.03125l-24.152344-24.152343c-2.460937-2.460938-2.996094-6.238281-1.328125-9.289063 6.941407-12.710937 12.59375-26.222656 16.765625-40.371094.980469-3.332031 4.03125-5.617187 7.503906-5.617187h34.117188c8.992188 0 16.28125-7.292969 16.28125-16.285156v-72.957031c0-8.996094-7.289062-16.285157-16.285156-16.285157zm-239.714844 197.0625c-79.695312 0-144.300781-64.605469-144.300781-144.300781s64.605469-144.300781 144.300781-144.300781 144.304688 64.605469 144.304688 144.300781-64.609376 144.300781-144.304688 144.300781zm0 0" fill="#e4eaf8"/><g fill="#d8dce5"><path d="m73.339844 147.960938c2.457031 2.457031 2.996094 6.234374 1.328125 9.289062-6.941407 12.707031-12.597657 26.21875-16.765625 40.367188-.980469 3.332031-4.03125 5.621093-7.503906 5.621093h30.90625c3.472656 0 6.523437-2.289062 7.503906-5.621093 4.167968-14.148438 9.824218-27.660157 16.765625-40.367188 1.667969-3.050781 1.128906-6.832031-1.328125-9.289062l-24.152344-24.15625c-6.359375-6.359376-6.359375-16.667969 0-23.03125l47.648438-47.648438-3.9375-3.9375c-6.359376-6.359375-16.667969-6.359375-23.03125 0l-51.585938 51.585938c-6.363281 6.363281-6.363281 16.671874 0 23.03125zm0 0"/><path d="m30.90625 292.480469v-72.960938c0-8.992187 7.292969-16.28125 16.285156-16.28125h-30.90625c-8.996094 0-16.285156 7.289063-16.285156 16.28125v72.960938c0 8.992187 7.289062 16.28125 16.285156 16.28125h30.90625c-8.992187 0-16.285156-7.289063-16.285156-16.28125zm0 0"/><path d="m80.09375 411.226562c-6.359375-6.363281-6.359375-16.671874 0-23.03125l24.152344-24.15625c2.457031-2.457031 2.996094-6.238281 1.328125-9.289062-6.941407-12.707031-12.597657-26.21875-16.765625-40.367188-.980469-3.332031-4.03125-5.621093-7.503906-5.621093h-30.90625c3.46875 0 6.523437 2.289062 7.503906 5.621093 4.167968 14.148438 9.824218 27.660157 16.765625 40.367188 1.667969 3.050781 1.128906 6.832031-1.328125 9.289062l-24.152344 24.15625c-6.363281 6.359376-6.363281 16.667969 0 23.03125l51.585938 51.585938c6.363281 6.359375 16.671874 6.359375 23.03125 0l3.9375-3.941406zm0 0"/><path d="m219.519531 0c-8.992187 0-16.28125 7.289062-16.28125 16.285156v34.113282c0 3.003906-1.71875 5.6875-4.335937 6.992187 3.785156-1.457031 15.515625-5.617187 28.847656-6.71875 3.621094-.300781 6.394531-3.347656 6.394531-6.976563v-27.410156c0-8.996094 7.289063-16.285156 16.285157-16.285156zm0 0"/><path d="m234.144531 495.714844v-24.996094c0-4.921875-3.734375-9.066406-8.632812-9.519531-12.855469-1.199219-22.421875-4.75-26.164063-6.328125 2.359375 1.378906 3.886719 3.90625 3.886719 6.730468v34.113282c0 8.992187 7.292969 16.285156 16.289063 16.285156h30.90625c-8.996094 0-16.285157-7.289062-16.285157-16.285156zm0 0"/></g></svg>